PathFileType	4	(X/Y/Z)	OpenSim_Sub01_EMGBaseline_Accel.trc
DataRate	CameraRate	NumFrames	NumMarkers	Units	OrigDataRate	OrigDataStartFrame	OrigNumFrames
100	100	37	8	m	100	5704	7604
Frame#	Time	torso_imu_offset_imu	pelvis_imu_offset_imu	tibia_r_imu_offset_imu	femur_r_imu_offset_imu	tibia_l_imu_offset_imu	femur_l_imu_offset_imu	toes_r_imu_offset_imu	toes_l_imu_offset_imu
				X1	Y1	Z1	X2	Y2	Z2	X3	Y3	Z3	X4	Y4	Z4	X5	Y5	Z5	X6	Y6	Z6	X7	Y7	Z7	X8		Y8	Z8	

5704	57.03000000	8.58628508	-1.31134267	6.11527716	9.32717688	1.47711828	2.10889296	9.35300632	1.05282913	-0.96480492	8.93663801	0.66404154	-0.43245737	4.44266974	-6.79520481	0.64579466	8.66081316	0.06725856	-0.07498871	5.55973284	-2.01517747	8.00933526	7.42164440	-0.43276195	10.75699579
5705	57.04000000	8.58455034	-1.36586864	6.16262722	9.24974236	1.29434174	2.13036332	9.24514564	0.74658773	-0.94028661	8.83528456	0.50980066	-0.47814576	4.55946532	-6.51305126	1.14647380	8.55028651	-0.08383597	-0.08897035	5.57394023	-2.00002179	8.01892773	8.00827453	-0.00510293	10.63894788
5706	57.05000000	8.58556826	-1.38363510	6.18681232	9.19615458	1.11993123	2.14534137	9.24082541	0.89076062	-0.81545244	8.87694767	0.31920259	-0.50451590	4.31287952	-6.00237563	1.90960708	8.30943449	-0.18706672	-0.07778057	5.53567270	-1.95942833	8.07611450	8.79237941	0.42809601	10.81679436
5707	57.06000000	8.58926266	-1.37138124	6.20390017	9.16499412	0.99791445	2.14659360	9.35674493	1.40840346	-0.63971107	9.05549440	0.13135283	-0.52059600	4.06295618	-5.32015713	2.69671995	7.98257516	-0.24614473	-0.05627506	5.45496958	-1.91337126	8.16292359	9.69800188	0.74792532	11.28173084
5708	57.07000000	8.59292353	-1.35300933	6.23538610	9.13004902	0.97485245	2.13692682	9.57497713	2.09881713	-0.46143681	9.30641180	0.00042304	-0.52287256	4.32587629	-4.52166320	3.28683195	7.68849368	-0.26696229	-0.02432882	5.39562916	-1.87678217	8.22986418	10.51427436	0.86583689	11.88331387
5709	57.08000000	8.59556831	-1.34648909	6.29165439	9.08222781	1.07461621	2.11538447	9.85122970	2.75928413	-0.32465415	9.55532114	-0.03400410	-0.50653600	5.40441324	-3.72658748	3.49942965	7.52194089	-0.26466689	0.00278136	5.40550959	-1.85509010	8.24237850	11.11443230	0.74451204	12.49148254
5710	57.09000000	8.60154895	-1.35085036	6.34965889	9.06520614	1.25346124	2.06905987	10.06551490	3.19054874	-0.26054150	9.70299059	0.02315263	-0.46388412	6.95528221	-3.24619168	3.27290704	7.50055974	-0.28174037	-0.03713164	5.48099508	-1.82587342	8.21269038	11.63192860	0.49653575	13.04756712
5711	57.10000000	8.61562152	-1.36166747	6.38158260	9.12775418	1.45611731	1.98457474	10.09367678	3.21001406	-0.29496195	9.65631563	0.15815952	-0.38764822	8.52823728	-3.39712974	2.58703434	7.62526208	-0.35882266	-0.20572953	5.60611955	-1.76489690	8.16212625	12.25225465	0.27059937	13.50778824
5712	57.11000000	8.63383187	-1.37520566	6.38070497	9.24889487	1.64190810	1.87455340	9.95859612	2.87477189	-0.40978301	9.48262880	0.34849581	-0.28504792	9.85984748	-4.04678089	1.71174538	7.85992614	-0.43337538	-0.42703839	5.72251867	-1.69783531	8.11879704	13.21968036	0.34095590	13.85367192
5713	57.12000000	8.64552315	-1.38826368	6.35654259	9.35397681	1.78139421	1.77162964	9.79632503	2.42639630	-0.55300134	9.37271578	0.56487159	-0.17445283	10.83056325	-4.71672554	1.14016879	8.13991891	-0.36349406	-0.51918758	5.73923001	-1.68875665	8.11602305	14.82354050	1.07826786	14.08615505
5714	57.13000000	8.64309965	-1.39979731	6.31503905	9.38974668	1.84879616	1.69913982	9.72213080	2.07064299	-0.66780880	9.45202652	0.77132862	-0.07033029	11.41870656	-4.99090236	1.14072796	8.39631134	-0.08587767	-0.37117322	5.61772890	-1.76607835	8.16961044	17.11144654	2.52641909	14.11480840
5715	57.14000000	8.62857406	-1.41513104	6.25028003	9.37063654	1.82835066	1.65126429	9.78087005	1.89273516	-0.68570911	9.64243468	0.91261176	0.02529980	11.88241924	-4.66497400	1.29709234	8.54958833	0.22314443	-0.09066056	5.47779709	-1.84935047	8.24292521	19.40930381	3.75092714	13.57623166
5716	57.15000000	8.60669543	-1.44059727	6.15572203	9.32256150	1.70908198	1.61685129	9.99785200	1.94328954	-0.54176945	9.83174568	0.93118173	0.11179353	12.51001260	-3.60916504	1.10031960	8.53557841	0.37423270	0.18983931	5.45854402	-1.84327270	8.29214408	20.94544864	3.71492763	12.08370463
5717	57.16000000	8.59657641	-1.47999124	6.04821088	9.25601057	1.52394188	1.58562291	10.30068491	2.08855140	-0.25671192	9.96118005	0.78870572	0.17466057	13.26712352	-2.22365001	0.55003897	8.54898212	0.64629565	0.57097973	5.55033660	-1.73151227	8.31094264	21.48483993	2.55619232	9.65672559
5718	57.17000000	8.62837904	-1.53515213	5.96259168	9.16960625	1.33968972	1.54797675	10.54179944	2.05290908	0.08279710	10.01307888	0.46165385	0.18875056	13.87104517	-1.31635922	0.03725640	8.98359569	1.67850619	1.33274869	5.62907575	-1.55852886	8.32185535	21.20562473	1.31640975	6.62753734
5719	57.18000000	8.72224490	-1.60392273	5.92642012	9.07297855	1.21358850	1.49808186	10.61533199	1.65340280	0.37910067	9.97281280	-0.04950014	0.12724513	14.10134742	-1.43937714	-0.19981896	9.99364752	3.86211167	2.55305653	5.61588951	-1.37447159	8.33780453	20.42262735	0.63520414	3.38525008
5720	57.19000000	8.86769592	-1.67242054	5.94421618	9.00937241	1.17209949	1.44126223	10.54509030	0.99322361	0.50692475	9.83161139	-0.67408908	-0.04081565	13.94163279	-2.35339547	-0.40691649	11.00629088	6.82413101	3.69564816	5.57504413	-1.24174854	8.34094488	19.82521577	-0.11159396	0.46404625
5721	57.20000000	9.04785191	-1.72503859	6.01545835	9.02606941	1.23177308	1.38686170	10.38061633	0.22963007	0.34722982	9.58627867	-1.32775324	-0.34265832	13.42765854	-3.64803049	-0.89461643	11.34792264	10.04063433	4.15250746	5.59108164	-1.22176337	8.30989133	20.11765068	-1.72272458	-1.65864140
5722	57.21000000	9.23474468	-1.75280426	6.12791665	9.13775779	1.34607430	1.37351354	10.19778639	-0.46272263	-0.04933609	9.30082064	-1.91543592	-0.73818989	12.81113189	-4.54242939	-1.60508168	10.84872088	12.84322801	3.94090086	5.65594953	-1.32697738	8.25540881	21.19088597	-4.11283483	-3.75585516
5723	57.22000000	9.39187930	-1.75185654	6.26034974	9.33402289	1.41992974	1.46236178	10.09272337	-0.89584082	-0.50152371	9.09094294	-2.33387849	-1.13550125	12.50979962	-3.97111065	-2.19697931	9.72676617	14.45252503	3.55928834	5.69033890	-1.53217247	8.21300030	22.30974513	-6.51595113	-7.56191227
5724	57.23000000	9.49428499	-1.72441644	6.39377992	9.58716974	1.38985040	1.66693605	10.12802547	-0.95234018	-0.85737960	9.03042770	-2.52286968	-1.45006286	12.68148117	-1.60321853	-2.47099145	8.33039975	14.37164665	3.31920856	5.64370464	-1.80657956	8.20410386	22.66300001	-8.08986000	-13.05347594
5725	57.24000000	9.55188586	-1.69038660	6.51664450	9.82007511	1.28990808	1.85756296	10.26512745	-0.72566609	-1.06198303	9.06453302	-2.55073704	-1.62323360	12.69895091	0.68746415	-2.67145610	7.36537271	12.95164920	2.93999801	5.55641745	-2.10581534	8.20647369	21.26129933	-7.81783064	-14.91100300
5726	57.25000000	9.58413184	-1.67042419	6.61948873	9.95192112	1.17198760	1.88831350	10.45005576	-0.34581756	-1.08295719	9.12197145	-2.50466642	-1.60607206	11.86433447	0.80015341	-3.08250093	7.54755000	10.69312748	2.05580222	5.48336262	-2.38311036	8.19299223	17.20189878	-4.78434974	-7.42745874
5727	57.26000000	9.65647344	-1.64756168	6.70388621	9.98334681	1.08461505	1.76618598	10.67814358	0.09350017	-0.95681544	9.23943698	-2.39842769	-1.42315448	10.59440768	-0.66358557	-3.35628636	8.75538303	7.98846951	0.66433834	5.44509482	-2.59365423	8.18449328	11.37071462	-0.07120620	6.25067345
5728	57.27000000	9.86971409	-1.57588806	6.77989431	9.97769833	1.07370649	1.61588098	10.98266997	0.52654106	-0.77305719	9.53670029	-2.18929229	-1.15563210	10.16353623	-1.02281608	-2.65885730	10.22274393	5.14677885	-0.95676347	5.43573696	-2.69415645	8.23870339	6.03017113	3.70289506	16.16439079
5729	57.28000000	10.24803736	-1.43542951	6.85002518	10.00182415	1.15260676	1.53654165	11.38393935	0.91510184	-0.56176620	10.07249676	-1.85616221	-0.86082636	11.24424296	1.25964917	-0.64023475	11.25093929	2.49268038	-2.47647720	5.44338785	-2.65706305	8.38733496	2.93882361	4.69069947	16.07582635
5730	57.29000000	10.58525466	-1.28549470	6.89372247	10.12818666	1.23807738	1.54237269	11.86080260	1.30068345	-0.17242752	10.71785023	-1.44653130	-0.52092595	12.65517183	4.16349842	1.57430686	11.39092052	0.40328540	-3.42651047	5.44026643	-2.50146365	8.58198140	2.25280630	3.45473125	11.32489363
5731	57.30000000	10.65070574	-1.19560535	6.88752906	10.42167804	1.23662506	1.62891238	12.38323317	1.72764545	0.55828800	11.31469144	-1.02273549	-0.10632928	12.95925000	5.15516923	2.67500955	10.30973632	-0.75284930	-3.34570899	5.39741905	-2.25704556	8.75930328	3.79551965	1.02081531	9.01252335
5732	57.31000000	10.48486785	-1.16877093	6.82840100	10.81838771	1.16850399	1.74736996	12.90305064	2.06262640	1.48583531	11.78892166	-0.67943796	0.38113459	12.02173402	3.86289027	2.67286730	8.72097210	-0.88036722	-2.25946139	5.31227713	-1.98303247	8.85416459	6.84465267	-1.31933656	10.56066125
5733	57.32000000	10.33687302	-1.15680954	6.72901229	11.15529339	1.14150629	1.81486534	13.35811993	2.03555768	2.22877364	12.13108071	-0.53613391	0.91542854	10.71026372	1.57885593	2.59519957	8.14329970	-0.09422474	-0.56774787	5.20257626	-1.76136402	8.80005514	10.25787312	-2.06994473	13.02018143
5734	57.33000000	10.37176324	-1.12324692	6.60752209	11.32113441	1.23234124	1.79452289	13.71285871	1.50938713	2.54089766	12.33053101	-0.64191820	1.45316972	9.71593902	-0.60790820	2.97528969	9.40009269	1.48156975	1.25371426	5.07717518	-1.64631465	8.54218637	12.97289220	-0.54263051	14.15519385
5735	57.34000000	10.48876492	-1.07030998	6.49718694	11.36603121	1.41866698	1.78877114	14.01165066	0.75275976	2.59595051	12.36819576	-0.83479838	1.90128418	9.12866790	-2.33926239	2.80074831	11.18716326	3.71218578	2.53279289	4.91700368	-1.60821775	8.06070469	14.19736840	1.53625833	14.18323692
5736	57.35000000	10.54408208	-1.00654986	6.43218331	11.36467973	1.65727666	1.91726601	14.30659795	0.09388320	2.62754349	12.22511237	-0.92183774	2.16341413	8.91724853	-3.43361433	0.89413258	11.90526143	6.40879538	2.61623769	4.71963528	-1.60656102	7.36254823	13.27415107	2.12783947	13.75293808
5737	57.36000000	10.48553368	-0.92808316	6.41868700	11.31304944	1.86677864	2.17206161	14.54407452	-0.37013142	2.60333793	11.90737381	-0.83103752	2.23153261	8.90146707	-4.32910621	-2.11570749	11.42586417	8.60454692	1.67669264	4.80894533	-1.67076541	6.75889374	10.82215804	1.19693952	13.17607633
5738	57.37000000	10.33145996	-0.82145815	6.44131055	11.14653564	1.93641480	2.44700860	14.58908527	-0.71999465	2.28636539	11.44035059	-0.58351037	2.16559420	8.78648954	-5.94049826	-4.20997207	10.75234020	8.73422703	0.52236609	5.75980674	-1.88404392	6.79488731	8.44223157	0.25044479	12.50514637
5739	57.38000000	10.09651543	-0.67805939	6.47311494	10.83821945	1.79208179	2.66611902	14.33213719	-0.93898450	1.56580912	10.83629629	-0.22015951	2.00649891	8.39330881	-8.59133753	-4.04807802	10.54994601	5.96363959	-0.30174727	7.90108916	-2.27431843	7.71090668	7.23555736	0.30501495	11.81558152
5740	57.39000000	9.77901242	-0.50437341	6.45448482	10.47779252	1.47083790	2.85053328	13.74573402	-0.70727420	0.72134321	10.06701508	0.16642269	1.73333135	7.89584937	-10.81199689	-2.41095111	10.39274754	1.67648471	-1.08135097	10.81149773	-2.70110591	8.82385098	6.74357722	0.80277183	11.27079371
